<svg xmlns="http://www.w3.org/2000/svg" class="abs tlbr ww hh" width="80" height="50" viewBox="0 0 100 50">
  <g transform="matrix(1 0 0 1 0 0)">
    <defs>
      <linearGradient x1="0" y1="0" x2="0" y2="1" id="gradient9" gradientTransform="rotate(-180 .5 .5)">
        <stop offset="0" stop-color="#000000" stop-opacity="1"></stop>
        <stop offset="1" stop-color="#000000" stop-opacity="1"></stop>
      </linearGradient>
    </defs>
    <path fill="url(#gradient9)"
          d="M57.05 14.15Q51.5 8.15 43.35 7.2 35.15 6.25 28.25 10.9L27.05 11.8Q26.2 11.8 21.75 5.9L17.45 0 21.3 6.4Q25 13.05 24.5 14.1 23.15 15.6 22.35 16.85 21.15 17.4 12.05 13L3.15 8.45 11.65 13.85Q20.15 19.55 20.05 21.2 19.15 23.55 18.8 25.95 18.25 26.95 9.05 28.65 4.5 29.5 0 30.15 4.3 29.8 8.8 29.65 17.75 29.45 18.6 30.7 18.95 36.75 22.4 41.8 24.45 44.8 27.55 47.2 26.45 45.95 25.5 44.55 21.15 38.15 23.3 29.75 25.5 21.35 33.1 16.15 38.95 12.15 46.1 11.65 53 11.2 57.05 14.15M82.35 20.8Q91.75 13.65 100 14.75 89.95 10.6 83 15.95 79 19 70.3 32.1 73.35 28.95 75.4 26.95 79.1 23.25 82.35 20.8M82.55 27.45Q87.35 21.7 92.05 19.9 87.85 20.5 81.75 25.65 81.1 26.2 70.65 36.05 63.7 42.55 59 45.15 52.5 48.75 47.05 47.15 41.5 45.45 39.75 40.45 38.15 35.85 40.45 31.25 42.8 26.45 47.75 25.35 53.5 24 60.35 28.5 59.5 23.05 55.6 20.15 52.1 17.65 47.5 17.85 43.05 18.15 40.2 20.9 37.1 23.95 37.65 28.5 33.25 28.35 30.8 30.75 28.6 32.85 28.5 36.2 28.45 39.4 30.15 41.95 32.1 44.65 35.2 45.1 37.65 52 45.3 53.45 52.6 54.85 57.95 50.45 62.65 51.55 67.1 47.85 70.2 45.25 74.75 38.5 80.7 29.7 82.55 27.45Z"/>
  </g>
</svg>
